<svg xmlns="http://www.w3.org/2000/svg" viewBox="0 0 312.47 274.63"><g id="Layer_2" data-name="Layer 2"><g id="Layer_1-2" data-name="Layer 1"><path d="M0,137.22c6.94-12.36,13.83-24.76,20.84-37.09q27.42-48.27,55-96.48c.72-1.32,1-3.1,2.89-3.55A8.81,8.81,0,0,1,82,3.44c9.07,16,18.39,31.85,27.28,48a6.7,6.7,0,0,1,.92,2.6v1.21c-.07,2.38-1.47,4.24-2.58,6.17-13.81,24.06-27.48,48.2-41.22,72.3-1.19,2.08-2.32,4.22-4.87,5-9.54.66-19.09.21-28.63.29-9,.08-18,0-27,0C3.76,139,1.7,138.75,0,137.22Z" fill="#39dc91"/><path d="M0,137.22l62.77.07c2,.37,2.73,2,3.58,3.48,14.06,24.58,27.93,49.26,42.06,73.8a11.62,11.62,0,0,1,1.8,4.82,8.53,8.53,0,0,1-1.55,4.86q-13.08,22.83-26,45.76a10.22,10.22,0,0,1-3.92,4.39l.09.23c-1.43-.47-1.86-1.79-2.51-2.93L1.14,139.7C.72,138.89.34,138.07,0,137.22Z" fill="#00cb76"/><path d="M237,3.85l37.12,65.49q18.39,32.39,36.86,64.75c.58,1,1,2.13,1.49,3.2A7.67,7.67,0,0,1,307.7,139c-18.42,0-36.84.14-55.26-.08a6.33,6.33,0,0,1-1.56-.23c-2.2-.72-3.3-2.59-4.34-4.43C232.36,109,217.72,84.05,203.63,58.8a9.12,9.12,0,0,1-1.37-3.7c-.1-2.11,1-3.81,2-5.52q13-22.72,25.91-45.5c1-1.75,2-3.49,4.31-3.68Z" fill="#07d174"/><path d="M233,0q-38.38,0-76.8.09L78.73.07c.6,1.36,1.1,2.74,1.81,4l28.62,50.14V55c1.67,2.06,4,1.72,6.23,1.72,13.59.15,27.19-.2,40.77.21,13.77-.42,27.54,0,41.31-.23,2.05,0,4.34.43,5.79-1.73,6.64-11.8,13.24-23.62,20-35.38,3.68-6.45,6.92-13.16,11.26-19.22A6.14,6.14,0,0,0,233,0Z" fill="#00cb76"/><path d="M249.75,137.36l62.68-.07c-8.26,14.67-16.49,29.37-24.81,44q-25.47,44.84-51,89.61c-.58,1-1.3,2-2,3-2.25.11-3.23-1.51-4.15-3.11-8.94-15.56-17.71-31.21-26.63-46.78a9.6,9.6,0,0,1-1.5-4.49c1.31-5.55,4.81-10,7.52-14.86,11.79-21,23.93-41.76,35.69-62.76C246.58,140.09,247.36,138,249.75,137.36Z" fill="#06bc57"/><path d="M232.44,271.09q-14.59-25.83-29.16-51.66c-1.49-2.11-3.77-1.67-5.87-1.7-11.91-.06-23.82,0-35.72,0-1.85,0-3.73-.06-5.4.94a4.27,4.27,0,0,0-.38.36c-1.11-1.3-2.73-1.25-4.29-1.28q-18.88-.13-37.78,0c-1.71,0-3.5-.06-4.65,1.64-5.24,10.89-11.94,21-17.61,31.63-4.19,7.85-9.23,15.21-12.84,23.37h77.49l76.19.12a2.6,2.6,0,0,0,2.22-.61A23.88,23.88,0,0,1,232.44,271.09Z" fill="#07d174"/><path d="M248.52,134.49,203.26,55.05H160.81c-1.58,0-3.21-.39-4.58.78h0c-1.7-1-3.57-.79-5.42-.79H109.15c-3.38,6.13-6.71,12.3-10.15,18.39q-18.1,31.93-36.18,63.89c.33.71.61,1.46,1,2.14q22.7,40,45.41,80h94.05q14.39-25,28.61-50.12c6-10.61,11.91-21.3,17.86-32A24.73,24.73,0,0,0,248.52,134.49Z" fill="#08e685"/></g></g></svg>