<svg xmlns="http://www.w3.org/2000/svg" viewBox="0 0 480.11 419.97"><g id="Layer_2" data-name="Layer 2"><g id="Layer_1-2" data-name="Layer 1"><path d="M.1,120l30,.5c7,9,3.8,19.4,4.3,29.4q.45,15,0,30c.3,10.1.3,20.1,0,30.2s2.4,20.9-4.1,30.3C20.1,246,10,246.35,0,240V120Z" fill="#33240a"/><path d="M479.9,179.85l-30.1.5c-6.3-9.8-6.3-21,.2-30.8l29.9.3Z" fill="#292206"/><path d="M.1,239.85l30.2-.2,1.7,1.8c3,8.9,3.2,17.9-.2,26.7l-1.8,1.7-29.8-.1Z" fill="#42350b"/><path d="M449.9,240.65l30-.8v30l-29.9.3C443.5,260.35,443.6,250.45,449.9,240.65Z" fill="#211a0e"/><path d="M449.9,240.65c0,9.8.1,19.7.2,29.5-.3,29.5-.3,29.5-29.8,29.8-17.9,1.8-28.5,11-30.3,29.4l-29.7.6c-9.1,6-18.8,4.7-28.5,2.2a8.73,8.73,0,0,1-3.9-3.7c-2.6-9.7-3.5-19.4,1-28.9,19-1.5,29-12.1,31.3-30.6,9-5.3,18.9-3.2,28.5-3.4,3,0,6-.4,9,0,12.2,1.6,19.2-2.5,18.5-16.1a13,13,0,0,1,4.4-10.8c9.9-4.4,19.7-5.1,29.3.7Z" fill="#37280d"/><path d="M149.8,389.75c-29.3-.3-29.3-.3-29.9-29.9l1.9-1.9c9.4-4.2,19.4-2.1,29.1-2.5,10-.5,20-.3,30-.1,19.8,1.1,40-4.2,59.3,3.8,6,10.3,6.2,20.5-.1,30.8l.2-.1c-9.6,6.7-20.4,3.9-30.8,4.2-14.8.7-29.7.3-44.5.2C159.6,394.25,154.2,393.45,149.8,389.75Z" fill="#39290d"/><path d="M149.8,389.75l60.2-.1c6.2,9.8,6.4,19.6,0,29.5-15.4.2-31-.4-46.3.7-11.1.8-15.5-2.3-13.8-13.7C150.7,400.85,149.9,395.25,149.8,389.75Z" fill="#1d1606"/><path d="M60,299.85c-29.5-.5-29.5-.5-30-30l.4-.2c9.6-6.3,19.4-5.5,29.4-1.1,6.8,9.3,5.5,19.1,2.2,29.2Z" fill="#151004"/><path d="M89.9,329.85c-29.5-.5-29.5-.5-30-30l.2-.2c9.6-6.2,19.5-5.5,29.5-1,6.8,9.3,5.6,19.2,2.2,29.2Z" fill="#1d1606"/><path d="M390,329.25c-.1-29.7-.1-29.7,30.3-29.4a7.72,7.72,0,0,1-.2,1.5C419.3,330.75,419.3,330.75,390,329.25Z" fill="#1d1606"/><path d="M119.9,360c-29.4-.7-29.4-.7-30-30l.2-.3c10-6.2,20.1-5.8,30.2-.3,5.7,10.1,6.1,20.2-.2,30.2Z" fill="#302507"/><path d="M329.8,359.15l-29.7.7-1.9-1.9c-3.5-9.6-4.1-19.1,1.1-28.4,8.1-5.7,16.9-4.4,25.8-2.8a14.34,14.34,0,0,1,4.4,3l1.3-.2C335.6,339.65,336.5,349.55,329.8,359.15Z" fill="#a71431"/><path d="M329.8,359.15c.3-9.9.7-19.8,1-29.6l29.4.3c0,.5-.1,1-.1,1.5C359.4,360.85,359.4,360.85,329.8,359.15Z" fill="#211706"/><path d="M240.2,390l-.3-30.5c.6-.6,1.2-1.1,1.9-1.7a42.23,42.23,0,0,1,27.2,0,8.35,8.35,0,0,1,3.4,3.8c2.1,9.4,4,18.9-2.4,27.6Z" fill="#160f04"/><path d="M270,389.15l.4-29.6c9.8-6.2,19.7-6,29.5,0l.3.4c0,.5-.1,1-.1,1.5C299.6,390.75,299.6,390.75,270,389.15Z" fill="#a12e2e"/><path d="M210,419.15v-29.5l30.4.2a7.72,7.72,0,0,0-.2,1.5C239.4,420.65,239.4,420.65,210,419.15Z" fill="#2c210a"/><path d="M450,149.55c-.1,9.8-.1,19.6-.1,29.4l-.1,1.4c-10,5.8-20.1,5.4-30.1,0-7.4-19.3-5.3-38.9-1.6-58.5.7-.7,1.3-1.4,2-2C449.6,120.25,449.6,120.25,450,149.55Z" fill="#38290c"/><path d="M119.8,90c.9-29.9.9-29.9,31.7-29.9,9.4,0,18.9,0,28.3-.1l1.9,1.8c4.3,9.3,2.2,19.2,2.6,28.8,0,9.5,1.5,19.1-2.3,28.3-4.1,5.5-10.4,4.6-16.1,5.4-5,.7-8.1,3.1-8.3,8.5-.2,5.9,2.7,9,8.5,9.8,5.2.8,11-.1,14.7,5.1a4.55,4.55,0,0,1-2.5,4.3,22.81,22.81,0,0,1-9.9,2.3c-17.3,1-22.2-3.3-22.9-20.3a97,97,0,0,1,.2-13.2c.1-9.8-1.5-19.8,2.2-29.3,3.9-5.9,10.2-5,16-5.8s8.8-4,8.7-9.9c-.1-6.4-4.4-8.2-9.9-8.5-3.9-.2-7.9-.1-11.8-.1-21.2,0-21.2,0-25.4,20.5a6.46,6.46,0,0,1-3.4,3.1Z" fill="#ac2e45"/><path d="M210,30.55l29.8-.7c.7.7,1.4,1.4,2,2.1,3.7,9.6,5.7,20.7-1.8,27.8-8.4,7.9-20,6.1-30.4,1.2C204,50.75,203.4,40.55,210,30.55Z" fill="#3e2b0b"/><path d="M330.1,29.85c29.5.5,29.5.5,30,30l-2,2c-28.2,7.4-37.3-1.7-29.9-29.9Z" fill="#2e200a"/><path d="M360.1,59.85c29.5.5,29.5.5,30,30l-2.1,2a14.58,14.58,0,0,1-4.1,1.6c-8.7,1.1-18.9,3.7-24.6-4.4-6.3-8.8-5.6-19.4.6-28.9Z" fill="#2b1e08"/><path d="M59.9,119.75c0-.5.1-1,.1-1.5.4-29.4.4-29.4,30.1-27.8,6.5,9.6,5.4,19.4,1.2,29.4-9.4,6.3-19.4,5.2-29.4,1.9Z" fill="#3d2e0b"/><path d="M90.2,119.75c0-9.8,0-19.5-.1-29.3l29.7-.6.1.4c6.8,9.9,6,20.1.8,30.4C110.4,125.75,100.2,126.75,90.2,119.75Z" fill="#2c1d09"/><path d="M390.1,89.85c29.5.4,29.5.4,30,30l-.3.2c-10,6.4-20.1,5.9-30.2.4-5.7-10.1-6.1-20.2.2-30.3Z" fill="#2a1e09"/><path d="M30.3,150.05c-.1-9.9-.1-19.8-.2-29.6l29.8-.7.3.3c6.3,10.3,7.9,22.1-.8,30.2C51.5,157.65,40,156.35,30.3,150.05Z" fill="#47340b"/><path d="M239.8,29.85c0-.5.1-1,.1-1.5C240.3-1,240.3-1,270,.55c6.5,9.9,5.8,20,.6,30.2-10.3,5.1-20.5,5.7-30.5-.7Z" fill="#3b2b0b"/><path d="M270.1,29.85c0-9.8,0-19.5-.1-29.3h30c6.6,10,5.9,20.1.6,30.3C290.2,35.85,280,36.85,270.1,29.85Z" fill="#291b09"/><path d="M299.9,29.85,300,.55C329.7-1,329.7-1,330.2,29.85l-.2.3C319.8,36.25,309.8,36.65,299.9,29.85Z" fill="#392a0c"/><path d="M210,30.55l-.1,29.3c-9.7,6.5-19.4,6.5-29-.1l-1.1.2a7.57,7.57,0,0,0,.1-1.5C180.5,29,180.5,29,210,30.55Z" fill="#281b09"/><path d="M30.3,150.05c29.5-.5,29.5-.5,30-30l29.9-.3,29.9.1c10-6.1,19.9-6.6,29.7.5.1,29.1.1,29.1,29.9,30,.4.3,1,.6,1.1,1,.6,19.4,13,26.1,30,27.9,1.2,1.6,2.5,3.4,2.5,5.3-.2,13.6,3.6,23,20,22,5.3-.3,9,3.6,10.3,9.2,1.5,8.1,1,16.3.8,24.4-.3,10.2,2.5,20.9-4.2,30.3-19.4,7.8-39.6,2.7-59.4,3.7-10.4-.3-21.1,2.3-30.7-3.7-6.3-9.4-5.2-19.2-1.8-29.2,4.4-6,11.2-5.2,17.4-5.8,6.4-.5,9.8-3.5,10-10.1.2-7.3-3-10.9-10.3-11.3-5.3-.3-10.9,0-15.5-3.6-4.4-4.9-3.7-11.2-4.2-17.1s-3.6-9-9.6-9.1c-6.2-.1-10.7,1.7-11.5,8.8-.7,6.3.3,13.2-5.3,18.2a33.36,33.36,0,0,1-28.3,0,12,12,0,0,1-3.9-6.2c-5.5-20.6-5.5-20.6-27.8-20.9-9.8-.3-19.9,2.4-28.8-3.9C30.4,170.25,30.3,160.15,30.3,150.05Z" fill="#654b16"/><path d="M30.4,180.25l29.4-.2c7,9.8,6.1,19.8.9,30-10,5.8-20.1,6.3-30.1,0C30.5,200.05,30.5,190.15,30.4,180.25Z" fill="#b7b5b2"/><path d="M30.6,210l29.7-.2,1.8,2.1c3,10,4.4,19.9-2.3,29.1-10,4.5-19.9,5.6-29.4-1.4l-.1.2C30.4,229.75,30.5,219.85,30.6,210Z" fill="#d6d5d4"/><path d="M420.2,180.25l29.6.1c-.1,9.8-.2,19.5-.3,29.3-9.4,6.7-19.2,5.6-29.1,1.3-6.8-9.1-5.6-18.9-2.2-28.9C418.8,181.45,419.5,180.85,420.2,180.25Z" fill="#b7b6b6"/><path d="M419.6,209.55l29.9.1c.1,9.9.2,19.8.3,29.6l-29.6.9-1.9-1.7c-3.6-8.9-3.3-18-.5-27Z" fill="#999898"/><path d="M30.4,239.45l29.4.7,1.8,1.5c3.5,8.3,2.8,16.8,1,25.3a6.26,6.26,0,0,1-3.2,3.4l-29.1-.6C30.4,259.65,30.4,249.55,30.4,239.45Z" fill="#533e14"/><path d="M329.6,329.75l-2.6-.1c-.6-.8-1.7-1.6-1.7-2.4.2-17.3-9.6-25-25.5-27-4.5-10.2-6.7-20.8-4.6-32,11.9-4.2,23.7-5.1,35.3,1.2,5.6,10.1,5.8,20.2.1,30.4Z" fill="#aa2e47"/><path d="M389.8,269.35l-29.7.6c-.6-.6-1.2-1.3-1.9-1.9-3.4-9.6-4-19.1,1.2-28.4,9.1-5.9,18.8-4.5,28.6-2.2a8.76,8.76,0,0,1,4,3.6C394.7,250.65,396.4,260.35,389.8,269.35Z" fill="#b6b6b6"/><path d="M389.8,269.35l.1-29.5c9.7-6.3,19.5-6,29.5-.5l.9.9c0,.5-.1,1-.1,1.5C419.3,270.85,419.3,270.85,389.8,269.35Z" fill="#989898"/><path d="M330.5,299.85c-.3-10.1-.7-20.2-1-30.3.7-.6,1.4-1.2,2-1.8,9.7-3,19.2-4.2,28.3,1.9l.2.2C359.7,299.65,359.7,299.65,330.5,299.85Z" fill="#b8b6b5"/><path d="M239.9,359.55l-60-.2c-6.3-10.1-5.8-20.3-.2-30.5,20.1-5.8,40.2-6,60.3.2,6.3,10.1,6.6,20.3-.1,30.5Z" fill="#999898"/><path d="M120.2,359.55l-.6-29.1,1.6-2c9.1-4,18.4-3.3,27.6-.6a9.41,9.41,0,0,1,3.6,3.8c2.3,9.6,3.8,19.1-2,28.1Z" fill="#4c3813"/><path d="M150.4,359.55l-.7-29.5c10-7,20.1-6.7,30.3-.3l-.2,29.5Z" fill="#d5d5d4"/><path d="M89.5,300.35l-29.3-.7-.8-29.3,1-.9c9.4-6,19.1-5,28.8-1.1,7.3,8.5,5.1,18.3,3.6,28A7.67,7.67,0,0,1,89.5,300.35Z" fill="#533e17"/><path d="M119.6,330.35l-29.5-.8c-.2-9.7-.4-19.5-.7-29.2l.9-.9c10-6,20-5.5,30-.1,5.6,10,6,20.1-.1,30.1Z" fill="#513e14"/><path d="M299.9,359.55H270.4l-.8.4c-5.6-9.7-5.2-19.6-.7-29.6,9.2-7,19.1-5.6,29.1-2.5l2,1.9Z" fill="#a72e45"/><path d="M300,299.75c27.3,0,27.3,0,27,29.9H300c-6.2-9-5.1-18.4-1.9-28Z" fill="#d51a43"/><path d="M269.8,330c-.1,10-.2,20-.2,30l-29.7-.4c.1-9.9.2-19.8.4-29.7l1.7-1.8a35.91,35.91,0,0,1,26.2,0Z" fill="#38280e"/><path d="M389.9,120h29.9l.4,60.2.1-.2c-19.4,8-39.2,5.4-59,1.6-8.3-8.5-5.7-18.7-4.3-28.6a11.66,11.66,0,0,1,2.7-4.2c1.9-.6-.7-.7,1.2-.7,18,.2,27.7-7.9,27.2-26.6A8.45,8.45,0,0,0,389.9,120Z" fill="#644b17"/><path d="M180.9,59.75l29,.1c29.9.6,29.9.6,30.2-29.7l30-.3h29.8l30,.3c.2,29.7.2,29.7,30,30,.3,29.7.3,29.7,30,30l.1,29.9.1-.1a60.83,60.83,0,0,0-30,30v-.1c-9.5,6.4-19.4,5.6-29.4,1.3a12.71,12.71,0,0,1-4.5-10.6c.4-11.9-5.1-16.9-17-16.8-9.2.1-12.8-6.2-13.2-14.7-.6-10.4-.1-20.8-.4-31.3-.2-7.1-1.9-12.8-10.7-13-8-.1-10.3,4.8-10.3,11.5,0,12.3-5.8,18.3-18.2,18.1-8-.2-11.6,4.1-11.9,12-.2,4.9-.5,10-4,14.1-20.9,8.1-30.1,4.2-34.6-15.7-1.6-7.1-5.1-10-11.9-10.3-4.9-.2-9.9-.8-13.5-4.8Z" fill="#644b16"/><path d="M180.2,89.55c4.4.1,9,.9,13.3.3,12.8-1.8,18.6,2.8,16.6,16.2-1.5,10.2,3.5,14.6,13.7,13.8,5.4-.4,10.9,0,16.3,0l1.4,1.8c.9,3.1.9,6-2.1,8-5.5.1-10.5-3-16.1-2.6-5.2.3-8.7,2.1-9,7.8s1.1,9.9,7.5,10.9,13.1-.6,18.9,3.6a12.87,12.87,0,0,1,2.5,4.4,16.28,16.28,0,0,1,.7,3c2.3,26.6-9.3,34.5-34.2,23.4-29-.4-29-.4-30-29.6l.3-3.4c-6-9-6.1-18,0-27C180.1,109.85,180.1,99.75,180.2,89.55Z" fill="#a91836"/><path d="M123.1,90c.1-32.1-3.6-26.3,26.4-27,3-.1,6,0,8.9,0,9.8-.1,19.4-2.4,19.2,14-.2,15.9-9.6,12.8-18.7,13-3,.1-5.9.1-8.9.2C141,95.55,132.1,96.55,123.1,90Z" fill="#d61e40"/><path d="M123.1,90l26.9.2c-.1,10.1-.1,20.2-.2,30.3-9.9-.2-19.8-.3-29.7-.5-.1-9.9-.1-19.7-.2-29.6Z" fill="#aa413e"/><path d="M180,120.05v27c-3.4,0-6.9-.1-10.3,0-9.1.3-17.1,1.6-17.2-12.8-.1-14.1,6.6-15.3,17.2-14.3C173.1,120.25,176.5,120,180,120.05Z" fill="#d71a41"/><path d="M209.7,180.05c29.8-.5,29.8-.5,30.6-30.4,8.6-5.9,17.8-4,27.1-2.4a10.36,10.36,0,0,1,4,2.8c4.6,9.3,1.1,20.1,5.7,29.4-2.8,9.4-2.7,19.3-4.8,28.8a7.83,7.83,0,0,1-3.1,3.4c-9.5,2.5-19.3,2.9-29,4.1-2-8.8-9.3-6.2-14.4-5.7-11.9,1.1-17.5-2.7-15.8-15.4C210.6,190,209.8,185,209.7,180.05Z" fill="#a72f47"/><path d="M180.1,269.85l59.8-.1c.6.6,1.2,1.2,1.8,1.9,3.2,9.3,3.4,18.6-.4,27.9a10.43,10.43,0,0,1-4.4,3.1c-19.4,1.5-38.8,5-57.8-2.4C174.2,290,173.4,279.75,180.1,269.85Z" fill="#37280c"/><path d="M60.3,209.75l-.5-29.7c30.1-.4,30.1-.4,30.4,29.7-.6.6-1.3,1.2-1.9,1.9-9.7,3.2-19.1,4.5-28-1.9Z" fill="#533f15"/><path d="M120.1,209.85c0-6.4.3-12.8-.1-19.2-.6-8.6,3.4-10.8,11.4-10.9,18.7-.3,18.6-.7,18.7,18.3v11.8l-1.8,1.7a37.5,37.5,0,0,1-26.4,0C121.3,211.05,120.7,210.45,120.1,209.85Z" fill="#45320e"/><path d="M90.2,209.75l29.9.1h0c6.2,8.7,4.5,18.1,2.6,27.5a10.65,10.65,0,0,1-3.2,4.1c-9.3,3.6-18.7,3.3-28.1.5a8.29,8.29,0,0,1-3.6-3.8c-2.4-9.6-3.9-19.1,2.1-28.1Z" fill="#553e15"/><path d="M150,209.85c5.9,0,11.9.5,17.7-.1,10-1,12.1,3.6,12.6,12.8.7,13.2-2.9,19.6-17,17.3-4.3-.7-8.9-.1-13.3-.1-.6-.6-1.2-1.3-1.8-1.9-3.2-9.6-4.3-19,1.8-28Z" fill="#45330e"/><path d="M150.1,239.75l.1,29.9-1.8,1.8c-9.1,3.4-18.2,3.1-27.3.2a8.35,8.35,0,0,1-3.4-3.8c-2.2-9.5-3.8-19,2.2-27.8l.3-.4c10-6.1,20-6.1,29.9.1Z" fill="#543e15"/><path d="M240,269.75c0-10,.1-20.1.1-30.1,10-6.3,20.2-5.8,30.5-.7q8.25,15.45,0,30.9c-10.1,6-20.3,6.3-30.5,0Z" fill="#3a280b"/><path d="M180.1,269.85v29.4c-8.7,7.4-18.4,4.8-28.1,2.9a8.24,8.24,0,0,1-4-3.6c-2.9-9.7-4.3-19.4,1.8-28.6l.3-.3Z" fill="#543e16"/><path d="M269.5,239.85l-29.4-.2v-23.9c8.4-10.4,20-4.4,30.1-5.8C276.2,220.05,276.7,230.05,269.5,239.85Z" fill="#d21d40"/><path d="M89.9,210.05c.1,9.9.3,19.7.4,29.6-10.1,6.9-20.3,6.3-30.5.3l.1.2c.1-10.2.3-20.3.4-30.5Z" fill="#b7b6b5"/><path d="M359.9,180l60.3.1c-.2,9.8-.5,19.7-.7,29.5l.2-.1c-8.9,7.5-19.5,4.2-29.5,4.7-10-.3-20.4,2-29.9-3.2-6.8-9.2-5.5-19-2.4-29A18.86,18.86,0,0,0,359.9,180Z" fill="#38280c"/><path d="M390,210.35l29.7-.9-.4,29.8-29.5.5.1.1C383.7,230,383.5,220.15,390,210.35Z" fill="#b7b6b6"/><path d="M59.7,240l30.5-.3h0c5.9,9.1,5.1,18.7,1.7,28.4L90,270l-29.5-.4C60.2,259.65,60,249.85,59.7,240Z" fill="#d6d5d4"/><path d="M269.5,239.85c.2-10,.4-19.9.7-29.9l-.1.1c8.7-7,19-4.1,28.8-4.4,9.8.3,19.6-1.2,29.2,1.9a8.52,8.52,0,0,1,3.9,3.6c3.6,9.6,1.9,19.6,2.2,29.5-.2,9.9,2.4,20.2-4,29.3l-.6-.4-35.3.8c-5.5,4.6-12,3.2-18.3,2.9a14.23,14.23,0,0,1-4.5-1.6l-1.7-1.7C269.7,259.85,269.6,249.85,269.5,239.85Z" fill="#d19b19"/><path d="M273,270.35h21.3c10.2,8.2,3.9,19.6,5.7,29.5h0c-9,6.2-18.2,5.8-27.5.9C267.4,290.45,266.7,280.35,273,270.35Z" fill="#d51b42"/><path d="M390,210.35v29.5l-29.4.4-2-1.5c-3.8-8.9-3.6-17.9-.2-26.9l1.8-1.7Z" fill="#999897"/><path d="M330.2,270l.2-30.1c9.7-6.2,19.4-6.1,29.2-.3l1,.8c-.2,9.8-.4,19.6-.6,29.5Z" fill="#9a9493"/><path d="M150.2,299.55l29.9-.3,59.6.2c7.1,10.1,6.5,20.2.4,30.5h0l-60.1-.2-30.3.3.2.1C143.9,319.85,143.3,309.75,150.2,299.55Z" fill="#b6b6b6"/><path d="M150.2,299.55c-.1,10.2-.2,20.4-.3,30.5l-29.5-.7c-.1-9.8-.3-19.7-.4-29.5.6-.6,1.3-1.2,1.9-1.9,9.6-3.4,19.2-4.2,28.3,1.6Z" fill="#d6d5d4"/><path d="M119.9,299.85l-29.5-.5c-.1-9.8-.3-19.7-.4-29.5l.2-.2c10-6.3,20.1-6.2,30.1-.1h0c6.1,10,6.2,20.1-.1,30.1Z" fill="#d6d5d4"/><path d="M273,299.75h27v30l-30.2.2-.1-.1c-5.4-8-3.5-16.8-2.9-25.5a11.31,11.31,0,0,1,2-4.3A2.91,2.91,0,0,1,273,299.75Z" fill="#aa1231"/><path d="M269.5,299.75c.1,10.1.1,20.1.2,30.2H240.2c-.1-10.2-.3-20.3-.4-30.5l-.1.2C249.6,293.75,259.6,293.25,269.5,299.75Z" fill="#9a9897"/><path d="M359.9,150c.1-29.9.1-29.9,30-30C389.9,149.85,389.9,149.85,359.9,150Z" fill="#45320f"/><path d="M329.9,150l30-.1V180l.1-.1c-9.6,6.3-19.5,5.6-29.5,1.2-7-9.2-5.6-19.1-2.5-29.1Z" fill="#44330e"/><path d="M240.1,119.85c0-3,.3-6-.2-9-2.3-15.1,1.6-24.1,19.4-21,10.3,1.8,10.7-5.2,10.8-13,.1-15.6,9.7-21.7,24.7-16.7,6,2,5,6.7,5.1,10.9.1,13,.2,25.9,0,38.8-.1,6.8,2.2,9.6,9.4,10.1,20.7,1.6,20.7,1.9,20.7,22.4v7.5h0c-20,7.6-40,7.4-60.1.1h0a61.85,61.85,0,0,0-29.8-30.1Z" fill="#44330f"/><path d="M240.1,119.85c30,.3,30,.3,29.8,30.2l-29.7-.4-.1.2c-5.2-6.9-5.6-13.9-.3-21Z" fill="#664a18"/><path d="M239.8,128.85l.3,21c-6.5,0-12.9-.2-19.4.1-7.4.4-11.7-2.1-10.6-10.1.8-5.5-3.3-13.9,3.9-15.8C222.5,121.65,232.7,119.65,239.8,128.85Z" fill="#d41c40"/><path d="M269.9,150l60.1-.1v30c-.6.6-1.3,1.2-1.9,1.8-9.3,3.9-19.1,2-28.8,2.4-8-.2-16.3,1.9-23.3-4.1C263.4,172.05,273.1,159.75,269.9,150Z" fill="#654a17"/><path d="M276,180.05h23.8c6.6,9.7,6.5,19.6.4,29.4l-30,.6C271.6,200,265.4,188.35,276,180.05Z" fill="#d21d3e"/><path d="M269.5,299.75l-29.9-.1c.2-9.9.3-19.8.5-29.7l29.7-.1h0c2.9,10,2.1,20,.5,30.1Z" fill="#b9b6b0"/><path d="M150.1,239.85l-29.9-.1c0-9.9-.1-19.9-.1-29.9h30Z" fill="#634b17"/><path d="M120.2,269.65l-30.1.1c0-10,0-20,.1-30.1l29.7.4C120,250,120.1,259.75,120.2,269.65Z" fill="#b7b6b5"/><path d="M120.1,299.75c0-10,0-20,.1-30.1l29.6.4.4,29.6Z" fill="#b7b6b5"/><path d="M329.9,180l30.1-.1c.1,10.1.1,20.2.1,30.3l.1-.2q-15.3,9.3-30.6,0l.1.2c-6-10.1-6.2-20.2.2-30.2Z" fill="#634b17"/><path d="M330,179.85c-.1,10.1-.1,20.2-.2,30.3l-29.7-.7-.4-29.4Z" fill="#46320f"/><path d="M329.7,210h30.6l-.7,29.5-29.2.3C330.1,229.85,329.9,220,329.7,210Z" fill="#3e2d0d"/><path d="M270.3,300l-.5-30.1,3.2.5v29.4Z" fill="#a72e45"/><path d="M449.8,180.35l30.29-.55c.1,9.9-.19,19.8-.09,29.6l-30.5.25" fill="#999898"/><path d="M449.9,240.65l-.4-31c9.8,0,30.5-2.13,30.5-2.13l-.1,32.33" fill="#b7b6b6"/></g></g></svg>