<svg xmlns="http://www.w3.org/2000/svg" viewBox="0 0 404 236.4"><g id="Layer_2" data-name="Layer 2"><g id="Layer_1-2" data-name="Layer 1"><g id="Layer_2-2" data-name="Layer 2"><g id="Layer_1-2-2" data-name="Layer 1-2"><path d="M20.43,36.29l131.91.08H178.5c1.21,1.25,1.11,2.85,1.12,4.39,0,6.83.08,13.65,0,20.47-.06,4.75-.9,5.58-5.77,5.65-6.94.09-13.89,0-20.83,0H33.42c-2.24,0-4.59.41-6.59-1.1C23.59,60,22.4,53.56,21.22,47.12c-.15-.76.2-1.73-.79-2.2Z" fill="#484b54"/><path d="M26.83,65.82c1.44,0,2.87-.11,4.31-.11q71.46,0,142.94.09c3.8,0,4.58-1.12,4.5-4.62-.23-8.25-.05-16.53,0-24.78l-.17-.2c1.13-3.23.33-6.56.47-9.84.15-3.7.17-7.42,0-11.12-.12-2.35.58-3.07,3-3,10.05.13,20.1,0,30.14,0h47.7c4.5,0,4.83.37,3.09,4.7-6,15-12.17,29.9-18.29,44.84s-12,29.7-18.31,44.44c-.79,1.86.74,3.8-.83,5.4-1.71.74-3.52.59-5.3.59h-73.4c-2.15,0-4.31.1-6.22-1.17-12.73-10.8-27.33-15.88-44.1-14.4A51.84,51.84,0,0,0,73,104.23a7.38,7.38,0,0,1-7.92.45A74.89,74.89,0,0,1,27.17,67.17,7,7,0,0,1,26.83,65.82Z" fill="#8b8d94"/><path d="M140.37,111l82.33-.06c1.07,0,2.14,0,3.21-.09a4.74,4.74,0,0,1,3.37-1c11.24-.08,22.5-.09,33.72,0,1.41,0,3.26-.39,3.77,1.8-24.16,22.86-25.2,61.32.75,84.8.06.9-.58,1.22-1.28,1.48a14.46,14.46,0,0,1-3.6.24c-38.82-.07-77.66.3-116.48.12-2.06,0-4.66.94-5.88-1.91,9.72-9.29,16.07-20.34,18.13-33.76,2.42-15.45-1.33-29.34-10.18-42.1C145.87,117.12,142.83,114.33,140.37,111Z" fill="#484b54"/><path d="M266.77,111.72c-.9-1.49-2.38-.74-3.6-.74-12.43-.09-24.86-.08-37.3-.09-2.3-.59-2-2-1.29-3.73q6.71-16.2,13.33-32.4,9.38-22.85,18.76-45.68c1.94-4.75,3.81-9.53,5.82-14.24.68-1.59.4-2.23-1.36-2.14h-1.8c-25.33-.08-50.71,0-76.09-.16-3.36,0-4.31,1-4.15,4.22.26,5.4.1,10.8,0,16.2,0,1.12.53,2.45-.8,3.27,0-6.94.16-13.88,0-20.81-.05-2.57.53-3.53,3.34-3.53q101.7.12,203.48.08c1,0,2.19-.5,2.92.73-1.54,1.3-3.41.9-5.16.9-13.63,0-27.24.09-40.87,0-3.22,0-4.91,1-6.14,4.07C324,47.23,311.77,76.68,299.8,106.24a26,26,0,0,1-2,4.18c-1.13.9-2.49.59-3.76.59q-11.58.06-23.14,0A8.63,8.63,0,0,0,266.77,111.72Z" fill="#b4b5b9"/><path d="M297.81,110.39c-.34-3.12,1.55-5.58,2.62-8.23q14.1-35,28.45-69.92C331.23,26.5,333.68,20.8,336,15a3.32,3.32,0,0,1,3.67-2.46c16.16.1,32.32.07,48.48.09-.17,23.33-7.59,44.1-22.37,62.1-15.3,18.66-35.1,30-58.67,34.59C304,109.92,300.89,110.06,297.81,110.39Z" fill="#91939a"/><path d="M140.31,196.42c1.21,1.49,2.89.83,4.34.83q58.95,0,117.9-.07c1.43,0,2.87.09,4.3.13-1.06,2.32-3.21,1.69-5,1.69-14.72.08-29.43,0-44.1,0-6.51,0-6.47,0-9.1,6.14-2.22,5.18-4.22,10.43-6.37,15.63-.9,2.16-2.15,3.39-4.82,3.38-27.9-.09-55.74-.05-83.63-.06a2.76,2.76,0,0,1-2-.4c0-7.86,0-15.74-.17-23.61,0-2.2.7-2.86,2.87-2.83,7.27.12,14.56,0,21.83.05C137.71,197.34,139.14,197.48,140.31,196.42Z" fill="#91939a"/><path d="M111.76,223.73q42.48,0,85,.1c2.53,0,3.6-1,4.45-3.1,2.65-6.64,5.54-13.18,8-19.88.9-2.38,2-3,4.41-3,16.48.09,33,.06,49.5,0,1.27,0,2.65.41,3.79-.56l.69-.82c1.4.9,3,.71,4.5.71h22.15c1.54,0,2.82,0,2.8,2.18-.06,7.74,0,15.48-.07,23.21,0,.41-.38.82-.58,1.23-1.21-1.26-1.06-2.86-1.06-4.4,0-5.5-.09-11,0-16.5.06-2.91-1.08-4-4-4-6.54,0-6.49-.14-9,5.8-2.12,5.07-4.14,10.19-6.25,15.3-.9,2.06-.32,2.83,1.89,2.79,4.67-.05,9.33,0,14,0,1.54,0,3.14-.15,4.4,1.07-1.1,1.1-2.49.61-3.74.61H115.41C114.2,224.43,112.76,225.07,111.76,223.73Z" fill="#b4b5b9"/><path d="M296.32,223.83H273.48c2.2-5.55,4.21-10.69,6.3-15.82,1-2.15,1.94-4.36,2.74-6.6.76-2.62,2.11-3.6,4.88-3.55,8.89.09,8.88,0,8.89,8.73,0,5.74,0,11.49.06,17.24Z" fill="#91939a"/></g></g><polygon points="0 5 8 5 15 0 0 5" fill="#fff"/><polygon points="404 236.4 396 236.4 400 229 404 236.4" fill="#fff"/></g></g></svg>