<svg xmlns="http://www.w3.org/2000/svg" viewBox="0 0 312.47 274.63"><g id="Layer_2" data-name="Layer 2"><g id="Layer_1-2" data-name="Layer 1"><g id="Layer_2-2" data-name="Layer 2"><g id="Layer_1-2-2" data-name="Layer 1-2"><path d="M0,137.22c6.94-12.36,13.83-24.76,20.84-37.09q27.42-48.27,55-96.48c.72-1.32,1-3.1,2.89-3.55A8.81,8.81,0,0,1,82,3.44c9.07,16,18.39,31.85,27.28,48a6.7,6.7,0,0,1,.92,2.6v1.21c-.07,2.38-1.47,4.24-2.58,6.17-13.81,24.06-27.48,48.2-41.22,72.3-1.19,2.08-2.32,4.22-4.87,5-9.54.66-19.09.21-28.63.29-9,.08-18,0-27,0C3.76,139,1.7,138.75,0,137.22Z" fill="#fe53a0"/><path d="M0,137.22l62.77.07c2,.37,2.73,2,3.58,3.48,14.06,24.58,27.93,49.26,42.06,73.8a11.62,11.62,0,0,1,1.8,4.82,8.53,8.53,0,0,1-1.55,4.86q-13.08,22.83-26,45.76a10.22,10.22,0,0,1-3.92,4.39l.09.23c-1.43-.47-1.86-1.79-2.51-2.93L1.14,139.7A26.76,26.76,0,0,1,0,137.22Z" fill="#fe328d"/><path d="M237,3.85l37.12,65.49q18.39,32.39,36.86,64.75c.58,1,1,2.13,1.49,3.2A7.66,7.66,0,0,1,307.7,139c-18.42,0-36.84.14-55.26-.08a6.33,6.33,0,0,1-1.56-.23c-2.2-.72-3.3-2.59-4.34-4.43C232.36,109,217.72,84.05,203.63,58.8a9.12,9.12,0,0,1-1.37-3.7c-.1-2.11,1-3.81,2-5.52q13-22.72,25.91-45.5c1-1.75,2-3.49,4.31-3.68Z" fill="#fe328d"/><path d="M234.47.4c-4.34,6.06-7.58,12.77-11.26,19.22C216.5,31.38,209.9,43.2,203.26,55c-1.45,2.16-3.74,1.71-5.79,1.73-13.77.19-27.54-.19-41.31.23-13.58-.41-27.18-.06-40.77-.21-2.2,0-4.56.34-6.23-1.72v-.82c1.37-2,3.5-1.66,5.44-1.67,11.29-.09,22.58,0,33.87-.06,5.48,0,6-.5,6-5.89.05-13.55,0-27.09,0-40.64,0-2.09-.3-4.33,1.72-5.86Q194.61,0,233,0A6.28,6.28,0,0,1,234.47.4Z" fill="#fe73ae"/><path d="M156.23.09c0,16.58-.1,33.16.07,49.74,0,3.54-1.11,4.53-4.57,4.49-14.18-.18-28.38-.1-42.57-.11L80.54,4.07c-.71-1.26-1.21-2.64-1.81-4Z" fill="#fe8fc1"/><path d="M249.75,137.36l62.68-.07c-8.26,14.67-16.49,29.37-24.81,44q-25.47,44.84-51,89.61c-.58,1-1.3,2-2,3-2.25.11-3.23-1.51-4.15-3.11-8.94-15.56-17.71-31.21-26.63-46.78a9.6,9.6,0,0,1-1.5-4.49c1.31-5.55,4.81-10,7.52-14.86,11.79-21,23.93-41.76,35.69-62.76C246.58,140.09,247.36,138,249.75,137.36Z" fill="#e70c6a"/><path d="M203.28,219.43q14.57,25.83,29.16,51.66a23.88,23.88,0,0,0,2.2,2.81,2.6,2.6,0,0,1-2.22.61l-76.19-.12c-1.43-1.07-1.68-2.61-1.69-4.25q-.14-23.4,0-46.82a6.76,6.76,0,0,1,.75-3.45,3.52,3.52,0,0,1,1-1.2c1.67-1,3.55-.93,5.4-.94,11.9,0,23.81-.06,35.72,0C199.51,217.76,201.79,217.32,203.28,219.43Z" fill="#fe328d"/><path d="M156.23,219.45v54.94H78.74c3.61-8.16,8.65-15.52,12.84-23.37,5.67-10.65,12.37-20.74,17.61-31.63,1.15-1.7,2.94-1.63,4.65-1.64q18.89-.13,37.78,0C153.33,217.78,155.13,217.7,156.23,219.45Z" fill="#fe52a0"/><path d="M156.23,219.45h-47q-22.71-40-45.41-80c-.39-.68-.67-1.43-1-2.14Q80.9,105.36,99,73.42c3.44-6.09,6.77-12.26,10.15-18.39h41.61c1.85,0,3.72-.19,5.42.79,1.45.88,1.62,2.32,1.7,3.81S158,62.57,158,64V211.54c0,2.7.76,5.67-1.7,7.88Z" fill="#fe73ae"/><path d="M156.23,219.45V55.83c1.37-1.17,3-.77,4.58-.78q21.19,0,42.45,0,22.63,39.71,45.26,79.44a25.77,25.77,0,0,1,1.23,2.92c-5.95,10.65-11.84,21.34-17.86,31.95q-14.23,25.09-28.61,50.12Z" fill="#fe52a0"/></g></g></g></g></svg>