<svg xmlns="http://www.w3.org/2000/svg" viewBox="0 0 422.8 562.21"><g id="Layer_2" data-name="Layer 2"><g id="Layer_1-2" data-name="Layer 1"><g id="Layer_2-2" data-name="Layer 2"><g id="Layer_1-2-2" data-name="Layer 1-2"><path d="M401.31,28.11c.06,19.3-.13,38.61.34,57.9.17,7.12-1.8,10.26-9.31,9.63-5.9-.5-11.87,0-17.81,0-3.69,3.13-8.17,3.5-12.69,3.5-84.77-.07-169.54.49-254.31-.26-9.51-.42-19.36,2.37-28.36-2.95-2.64-3.49-2.81-7.62-2.86-11.7-.2-14.51-.15-29,0-43.55,0-4.5.27-9,3.55-12.6Z" fill="#fed67a"/><path d="M325.21,498c18.22-1.8,26,9,24.88,20.78-.76,7.89-6.68,11.1-11.7,15.3H129.29c-8.84-2.79-13.42-8.93-13.67-18.11-.27-10.48,6.3-16.06,15-20,5.34-1.57,10.8-1.11,16.26-1.21,55.23-.72,110.44-.22,165.67-.27C317,494.53,321.48,495,325.21,498Z" fill="#fed67a"/><path d="M79.83,28.11l.11,67.26c-10.58,6-21.22,5.18-31.89.3C21.14,95,21.14,95,21.14,68.18c0-13.36.16-26.71.24-40.07Z" fill="#e5c16e"/><path d="M129.39,498.31c-15.19,11.86-15.51,21.6-.1,35.79h-45c-9.15-5.59-14.63-13.29-10.82-24.12,3.88-11.08,13.7-12.49,24-12C108.13,493.16,118.79,492.28,129.39,498.31Z" fill="#e5c16e"/><path d="M106.72,95.78l267.81-.11c-.54,26.79,2.34,53.79-5.31,80.1Q345,259,263.62,288.79c-2.09.77-4.12,1.66-6.18,2.5-6.5,5.5-14.34,6-22.32,6-33.6-8.77-63.64-24.06-87.35-49.87-28.11-30.6-43.57-66.6-44-108.59q-.14-15.15,0-30.29C103.87,104.12,103.37,99.5,106.72,95.78Z" fill="#cbab62"/><path d="M325.21,498l-180.27-.1c-2.2-2.47-2.21-5.34-1.72-8.38,2.7-17.1,24-38,41.9-41.4-8.32.33-17,4.08-24.72-2,6.62-3.23,13.88-.16,20.63-2.05,10.34-6.06,21.4-2.87,32.23-2.59,9.15,3.77,19.16-1.12,28.3,2.7l.06.06c8.1,2.6,16.62-.49,24.75,1.73C295.48,447.8,319.15,468.7,325.21,498Z" fill="#cbab62"/><path d="M178.64,394.73c-15.4-1.73-23-7.2-24.91-18-2.27-12.89,2.1-20.21,16.11-27,11.49-6.57,24-2.44,36-3.32,11.48-.52,23-.21,34.45-.17,4.5,0,9,.12,12.55,3.44,14,6.89,18.42,14.21,16.13,27-1.91,10.8-9.5,16.26-24.93,18.09-9.28,5.86-19.54,2.61-29.4,3.19C202.61,397.17,190.16,401.13,178.64,394.73Z" fill="#cbab61"/><path d="M252.82,349.65l-47-.06c-8.73-12.66-10.54-42.47-3.22-53.1,10.66-2.44,21.38-3.44,32.2-.95l22.65-4.23Q255.15,320.47,252.82,349.65Z" fill="#fed67a"/><path d="M214.77,394.73l29.26,0c-4.14,16.33-2.16,33-2.47,49.5-9,1.86-17.92,4.1-26.85-.11C213.79,427.71,210.79,411.2,214.77,394.73Z" fill="#fed67a"/><path d="M266.37,446c-8.26-.36-16.76,2.51-24.75-1.73C249.84,445.42,258.32,442.72,266.37,446Z" fill="#fed67a"/><path d="M234.79,295.54a119,119,0,0,1-31.22,2.25c-13.42,1.57-26.66,2.07-38.37-6.49-37.34-13-68.57-34.05-90.38-67.79-17.45-27-26.68-56.4-26.68-88.62,0-13.06-.07-26.14-.11-39.22l31.89-.3,26.78.41c1.21,26.39-2.8,53,4.59,79.11,17,59.84,55.46,98.29,114.72,116.25C229.27,292.12,232.51,292.76,234.79,295.54Z" fill="#b79a58"/><path d="M160.4,446.18h29.28c-23.28,12.08-42.34,25.05-44.74,51.71l-15.55.42-32-.3C104.15,466.81,129.41,446,160.4,446.18Z" fill="#b79a58"/><path d="M165.2,291.3l38.37,6.48c-4.89,7.49-2.29,15.8-1.92,23.6.44,9.44,2.7,18.81,4.16,28.21l-36,.12C169.29,330.16,164.59,310.93,165.2,291.3Z" fill="#e5c16e"/><path d="M214.77,394.73c1.2,16.47,4.9,32.95-.06,49.42H181c-.3-16.49,2.12-33.1-2.38-49.39Z" fill="#e5c16e"/></g></g><polygon points="0 0 8 0 0 10 0 0" fill="#fff"/><polygon points="422.8 562.21 412 562.21 422.8 547 422.8 562.21" fill="#fff"/></g></g></svg>