<?xml version="1.0" encoding="utf-8"?>
<!-- Generator: Adobe Illustrator 26.0.0, SVG Export Plug-In . SVG Version: 6.00 Build 0)  -->
<svg version="1.1" id="Layer_1" xmlns="http://www.w3.org/2000/svg" xmlns:xlink="http://www.w3.org/1999/xlink" x="0px" y="0px"
	 viewBox="0 0 439.3 484.1" style="enable-background:new 0 0 439.3 484.1;" xml:space="preserve">
<style type="text/css">
	.st0{fill:url(#SVGID_1_);}
	.st1{fill:url(#SVGID_00000183226085686621005900000017287027339016017061_);}
	.st2{fill:url(#SVGID_00000067231913759740114840000006882715377940398466_);}
</style>
<linearGradient id="SVGID_1_" gradientUnits="userSpaceOnUse" x1="205.1763" y1="279.227" x2="9.1763" y2="114.227" gradientTransform="matrix(1 0 0 -1 0 486)">
	<stop  offset="0" style="stop-color:#8B8989"/>
	<stop  offset="1" style="stop-color:#676465"/>
</linearGradient>
<path class="st0" d="M210.2,484.1c-0.6-1.9-2.6-2-4-2.8c-67.4-36-134.9-72-202.4-107.9c-2.6-1.4-3.9-2.8-3.8-6
	c0.1-89,0.1-178,0.1-267v-3.2c1.8-0.4,2.9,0.6,4.2,1.2l194.4,100.9c2.8,1.3,3.9,2.7,3.9,5.9c-0.1,93.7,8.9,180.4,8.9,274.1
	c0,1.6-0.2,3.1-0.4,4.7L210.2,484.1z"/>
<linearGradient id="SVGID_00000005986676518099928840000001286081634612444331_" gradientUnits="userSpaceOnUse" x1="229.1791" y1="282.1982" x2="436.1792" y2="110.1982" gradientTransform="matrix(1 0 0 -1 0 486)">
	<stop  offset="0" style="stop-color:#8B8989"/>
	<stop  offset="1" style="stop-color:#676465"/>
</linearGradient>
<path style="fill:url(#SVGID_00000005986676518099928840000001286081634612444331_);" d="M228.2,484.1c-0.1-1.9-0.4-3.8-0.4-5.6
	c0-93.1,7-180.2,6.9-273.3c0-3.6,0.8-5.4,4.3-7.1c67.7-31.1,128.4-68.3,196-99.7c1.2-0.6,2.4-1.6,4.2-1.2v4.6
	c0,88.2,0,176.4,0.1,264.6c0,3.6-0.9,5.4-4.2,7.2c-67.4,35.8-134.7,71.7-202,107.7c-1.4,0.7-3.4,0.9-4,2.8L228.2,484.1L228.2,484.1z
	"/>
<linearGradient id="SVGID_00000011027305769241163510000013990026236952289971_" gradientUnits="userSpaceOnUse" x1="219.062" y1="315.9997" x2="220.062" y2="478.9997" gradientTransform="matrix(1 0 0 -1 0 486)">
	<stop  offset="0" style="stop-color:#8B898A"/>
	<stop  offset="1" style="stop-color:#676465"/>
</linearGradient>
<path style="fill:url(#SVGID_00000011027305769241163510000013990026236952289971_);" d="M8.1,82.2c34.5-13.6,68.3-26.8,102.1-40
	C145.5,28.4,180.8,14.6,216,0.8c2.1-1,4.5-1.1,6.7-0.2c68.3,26.8,136.6,53.6,205,80.3c1,0.4,1.9,0.8,3.4,1.5L384.4,104
	c-53.8,24.9-107.6,42.8-161.4,67.6c-2.2,1.2-4.8,1.2-7,0c-68-31.5-136.1-56-204.2-87.4L8.1,82.2z"/>
</svg>
