<?xml version="1.0" encoding="utf-8"?>
<!-- Generator: Adobe Illustrator 26.0.0, SVG Export Plug-In . SVG Version: 6.00 Build 0)  -->
<svg version="1.1" id="Layer_1" xmlns="http://www.w3.org/2000/svg" xmlns:xlink="http://www.w3.org/1999/xlink" x="0px" y="0px"
	 viewBox="0 0 485.8 485.8" style="enable-background:new 0 0 485.8 485.8;" xml:space="preserve">
<style type="text/css">
	.st0{fill:#846D52;}
</style>
<path class="st0" d="M233,485.7c-0.6-1.9-2.6-2-4-2.8c-67.4-36-134.9-72-202.4-107.9c-2.6-1.4-3.9-2.8-3.8-6c0.1-89,0.1-178,0.1-267
	v-3.2c1.8-0.4,2.9,0.6,4.2,1.2c67.8,31.3,135.6,62.6,203.4,93.9c2.8,1.3,3.9,2.7,3.9,5.9c-0.1,93.7-0.1,187.4-0.1,281.1
	c0,1.6-0.2,3.1-0.4,4.7L233,485.7z"/>
<path class="st0" d="M251,485.7c-0.1-1.9-0.4-3.8-0.4-5.6c0-93.1,0-186.2-0.1-279.3c0-3.6,0.8-5.4,4.3-7.1
	c67.7-31.1,135.4-62.4,203-93.7c1.2-0.6,2.4-1.6,4.2-1.2v4.6c0,88.2,0,176.4,0.1,264.6c0,3.6-0.9,5.4-4.2,7.2
	c-67.4,35.8-134.7,71.7-202,107.7c-1.4,0.7-3.4,0.9-4,2.8L251,485.7z"/>
<path class="st0" d="M30.9,83.8C65.4,70.2,99.2,57,133,43.8C168.3,30,203.5,16.2,238.8,2.4c2.1-1,4.5-1.1,6.7-0.2
	c68.3,26.8,136.7,53.6,205,80.3c1,0.4,1.9,0.8,3.4,1.5l-46.7,21.6c-53.8,24.9-107.6,49.7-161.4,74.6c-2.2,1.2-4.8,1.2-7,0
	c-68-31.5-136.1-63-204.2-94.4C33.7,85.3,32.6,84.7,30.9,83.8z"/>
</svg>
