<svg xmlns="http://www.w3.org/2000/svg" viewBox="0 0 799.08 960"><g id="Layer_2" data-name="Layer 2"><g id="Layer_1-2" data-name="Layer 1"><g id="Layer_2-2" data-name="Layer 2"><g id="Layer_1-2-2" data-name="Layer 1-2"><g id="Layer_2-2-2" data-name="Layer 2-2"><g id="Layer_1-2-2-2" data-name="Layer 1-2-2"><path d="M182.1,21.49a98.82,98.82,0,0,1,56-19.9c6.3-2.8,13-1.1,19.4-.9a36,36,0,0,1,10.7,1.7A142.88,142.88,0,0,1,306,17.79c1.3.7,2.7,1.4,3.1,3,14.8,9.3,27.6,21,39.9,33.4,3.1,1.2,4.1,4.4,6.2,6.5a199.64,199.64,0,0,1,21.2,41c9.6,26.5,14.3,54,18.2,81.7,2.4,17.1,3.8,34.4,4.5,51.6.2,4.7-.7,9.4-.4,13.9.1-3.9.3-8,.4-12,1.5-39.8,6.6-79.1,16.8-117.7a127.3,127.3,0,0,1,4.9-14.7c2.6-6.3,5.1-12.7,8-18.9,8.7-18.8,21.5-34.5,36.8-48.3,1.1-1,2-2.2,3.8-2,9.3-7,18.7-13.8,29-19.4,29-15.9,59.3-18.2,90.7-9.3,5.1-.3,9.1,2.6,13.5,4.5,2.3,1,4.3,2.5,6.5,3.7,2.9,1.9,5.7,4.1,8.5,6.2,3.1,4,8.4,5.7,10.6,10.6,20.5,19.9,34,43.3,36.2,72.4a7,7,0,0,0,.6,1.9c1.9,1.7,1.5,3.9,1.6,6,.1,4.8.2,9.6,0,14.4-.1,2.8,1.1,3.8,3.8,3.8,6.6-.1,13.3-.1,19.9,0a116.18,116.18,0,0,1,36,6.9c13.4,5.6,25,13.8,35.7,23.5,16.1,13.3,28,29.5,33.6,49.8.9,3.3,2.4,6.6,1.4,10.2,2,14,3.2,28,.3,42.2-5.3,25.4-17.6,47.1-33.9,66.9a140.89,140.89,0,0,1-36.2,30.9c-.6,2-2.5,2.6-4,3.5a199.1,199.1,0,0,1-40,16.5c-4.8,1.6-9.7,2.9-14.5,4.4-21.4,5.4-43.2,8.3-65,11-18.2,2.2-36.4,3.8-54.7,4.6a91.6,91.6,0,0,1-14.9-.7c49.8.9,99,6.8,147.2,19.5,13.8,4.6,27.7,9.1,40.5,16.1,2.5,1.3,5,2.6,7.3,4.1,16,9.1,28.5,22,40,36,1.2,1.5,2.8,3,2.7,5.2,7.9,12.1,15.3,24.6,20.4,38.2,10.3,27.4,8.5,54.5-1.3,81.5.6,2-.6,3.5-1.3,5.2-6.2,14.2-17,24.8-28.4,34.7-3.7,3.2-6.7,7.5-11.9,8.6-5.6,3.6-11,7.4-16.9,10.5-17.8,9.2-36.9,10.1-56.4,9.6-3.6-.1-8.2-2.3-10.5,0-1.7,1.7-.3,6.5-.2,10,1.3,37.8-11.9,69.2-41.5,93.4-3.1,2.5-5.9,5.3-8.9,8-.6,2.2-2.4,3.1-4.1,4.2a93.5,93.5,0,0,1-51.3,15.4c-8.4,0-16.9.5-25.3-1a127.43,127.43,0,0,1-44.4-17.2c-9.7-6.7-19.7-12.9-28.1-21.3-4.5-4.4-8-9.6-12.6-13.8-11.1-12.5-28.5-47-28.6-54,.7,6.5-.4,14.8.5,23s1.2,16.5,2.7,24.7c3.8,27.3,11.3,53.3,25.3,77.2,5.7,10.2,13.1,19.2,21.1,27.7,6.8,9,15.8,15.8,24.5,22.7a192.17,192.17,0,0,0,33.4,20.9c7.6,3.6,15.3,6.8,23.2,9.7,6.1,2.2,12.3,4,18.5,5.7,3.8,1,5.3,3.1,3.8,6.9-1.1,2.7-.7,6-3.2,8.1a142.69,142.69,0,0,0-5.8,21.3c.3,6.3-2.3,12-4,17.8-.5,1.8-2.1,1.7-3.7,1.5-6-.6-11.7-2.7-17.3-4.5a300.86,300.86,0,0,1-50-21.4c-6.4-3.8-13.1-7.3-19.3-11.5-23.7-15-42.4-35-57.9-58.2a30.75,30.75,0,0,1-2.6-5.9c-9.6-16.6-18-33.7-23.2-52.2-8.3-29.5-11.9-59.7-12.1-90.3a56.45,56.45,0,0,0-.9-11.6c-1.3,2.9-2.5,5.9-3.9,8.8-20,42.4-52.4,70.8-97.6,82.6-30.8,8-61,4.1-87.4-15.7a149.69,149.69,0,0,1-37.2-39.4c-3.5-2.2-4.9-5.8-6.4-9.3a108.64,108.64,0,0,1-8.8-42.1c-.1-5,0-10,0-14.9,0-2.9-1.3-4.3-4.2-4.2-2,0-4,.3-6,.4a123.34,123.34,0,0,1-45.6-5.5,19.35,19.35,0,0,1-7.7-4.5c-15.3-8.1-28.2-19.2-40.5-31.3-17.5-17.1-25.3-38.2-27.6-62-3.7-38.2,11.7-69.3,35.8-97.2,9.7-11.2,20.5-21.4,33.3-29,3.2-4.4,8.2-6.2,12.8-8.4a249.44,249.44,0,0,1,50.6-17.1c31.7-7.4,63.9-11.4,96.3-14.2,11.3-1,22.8-.6,30.8-1-10.2,1.3-23.7-.5-37.1-1.6-20.9-1.6-41.7-4.3-62.4-7.7-24.2-4-48-9.8-70.5-19.9a162.63,162.63,0,0,1-18.6-9.6c-15.8-8.9-28.8-21.2-40.1-35.2-1.4-1.8-3.4-3.3-3.4-5.9-6.8-10.4-13.7-20.8-18.7-32.3-11.8-27.1-11.9-54.5-2.9-82.2.4-1.4.8-2.8,1.3-4.3.3-5.5,3.2-10.1,6.1-14.4A141.21,141.21,0,0,1,65,141c1.6-.9,3.2-1.7,4.8-2.6,6.6-3.1,13.6-4.5,20.6-6.3,11.6-2.6,23.3-2.2,35.1-2.2,6.2,0,6.3-.2,6.5-6.4.2-5.1.1-10.2.1-15.4a14.51,14.51,0,0,1,.4-4.2c1.2-6.7,1.7-13.4,3.5-20a94.73,94.73,0,0,1,11-25.5c.9-1.5,1.7-3.2,3.7-3.8C159.1,42,170.7,31.89,182.1,21.49Z" fill="#008411"/></g></g></g></g></g></g></svg>