<svg xmlns="http://www.w3.org/2000/svg" xmlns:xlink="http://www.w3.org/1999/xlink" viewBox="0 0 26.92 25.66"><defs><linearGradient id="linear-gradient" x1="18.23" y1="8.15" x2="5.51" y2="21" gradientTransform="matrix(1, 0, 0, -1, 0, 27.99)" gradientUnits="userSpaceOnUse"><stop offset="0" stop-color="#b04f72"/><stop offset="1" stop-color="#7539d3"/></linearGradient></defs><g id="Layer_2" data-name="Layer 2"><g id="Layer_1-2" data-name="Layer 1"><g id="Layer_2-2" data-name="Layer 2"><g id="Layer_1-2-2" data-name="Layer 1-2"><path d="M14.11.43l3.44,8.05,8.72.78a.7.7,0,0,1,.65.75.75.75,0,0,1-.25.48h0l-6.6,5.76L22,24.79a.71.71,0,0,1-.52.84h0a.74.74,0,0,1-.54-.1l-7.5-4.48-7.52,4.5a.7.7,0,0,1-1-.2l0,0a.73.73,0,0,1-.08-.52h0l2-8.54L.24,10.49a.72.72,0,0,1-.07-1,.73.73,0,0,1,.5-.23l8.7-.78,3.44-8a.69.69,0,0,1,.92-.37h0A.66.66,0,0,1,14.11.43Z" fill="url(#linear-gradient)"/></g></g></g></g></svg>