<svg xmlns="http://www.w3.org/2000/svg" viewBox="0 0 383.9 383.8"><g id="Layer_2" data-name="Layer 2"><g id="Layer_1-2" data-name="Layer 1"><path d="M0,340.4c2.1-7.5,7.3-12.6,12.6-17.9Q122.85,212.7,232.8,102.4c.9-.9,1.7-1.8,2.6-2.7,2.7-.9,4.2,1.4,5.6,2.8,6.8,6.4,14,12.4,20.3,19.4a2.08,2.08,0,0,1,.5,2c-23.7,23.5-47.2,47.2-70.8,70.8Q103.25,282.15,15.5,370c-1.5,1.5-2.7,3.7-5.3,3.8-3.7-2.4-4.9-6.4-6.9-10S.9,356.3.1,352.4v-12Z" fill="#a34e3f"/><path d="M10.4,373.4c1.2-1.1,2.5-2.1,3.6-3.2Q135.8,248.4,257.6,126.7c1.2-1.2,2.1-2.9,4.1-3,3.1.1,4.4,2.7,6,4.5,5.1,5.7,10.8,11,15.6,17,.8,1,1.8,1.8,1.1,3.3L165.1,267.6Q114.85,318,64.5,368.3c-7.1,7.2-14.5,13.6-24.8,15.5H29.2a27.25,27.25,0,0,1-16.1-6.4C11.9,376.4,10.2,375.5,10.4,373.4Z" fill="#86363e"/><path d="M284.3,148.5c-.5-2.4-2.5-3.6-4-5.2-6-6.7-12.1-13.4-18.7-19.6-.3-.5-.6-1-.8-1.4q23.55-23.85,47.4-47.4a4.18,4.18,0,0,1,1.2-.8,2.05,2.05,0,0,1,1.1,0c5.8,4.4,10.2,10.2,15,15.6,2.9,3.3,5.8,6.5,8.4,10,18.4,23.2,32.5,48.7,41.4,77,4.7,14.8,8.2,29.8,8.1,45.4.2,1.7-.4,3.5.4,5.2v18a7.73,7.73,0,0,0,0,5.2v2.2c-1.4,4.6-1.2,9.5-2.2,14.2-1.3,5.8-1.6,11.9-4.5,17.2-2.3,4.3-7.4,6.8-11.5,5.9-5.4-1.2-9.1-4.9-9.4-9.8a116.06,116.06,0,0,0-4.2-21.9c-4.8-16.5-12.1-31.8-20.6-46.7A382.57,382.57,0,0,0,295,159.8C291.6,155.8,288.9,151.3,284.3,148.5Z" fill="#4166af"/><path d="M309.6,74.2c-1.3,1.5-2.6,3-4,4.4-13.6,13.7-27.3,27.3-41,41-1.1,1.1-2,2.7-3.9,2.7-7.4-6.9-14.7-13.8-22.1-20.6-.9-.9-1.7-2.2-3.4-2-.3-2.5-2.6-3.2-4.1-4.5A358.91,358.91,0,0,0,173,53c-18.7-10.9-38.2-19.9-59.6-24.2a48.23,48.23,0,0,0-8.5-1.1C99,27.5,94.8,23.5,94,17.5c-.7-5.2,2.3-9.8,7.8-11.6A116.31,116.31,0,0,1,131,.7c1.2-.7,2.4-.2,3.7-.3,2-.2,4.1.4,6.1-.4h13.5c2.1.8,4.3.2,6.5.4,14-.2,27.6,2.8,40.9,6.6,29.7,8.4,56.4,22.7,80.8,41.6.6.5,1.1,1,1.7,1.5,8,6.4,15.7,13.1,23,20.2C308.4,71.3,310,72.2,309.6,74.2Z" fill="#387ae5"/><path d="M161.2,0V.7c-2.2-.3-4.6.8-6.8-.7Z" fill="#eef1f5"/><path d="M134.7.2c.1-.2.2-.2.2-.2h6" fill="#e6e9f0"/><path d="M383.1,221.9h.7v5.2C382.5,225.6,383.4,223.6,383.1,221.9Z" fill="#e8eaf1"/><path d="M383.9,250.4a4.21,4.21,0,0,1,0-5.2Z" fill="#d6dae6"/><path d="M284.2,51c4.1-4,8-8.2,12.2-12.1,14-13,34.5-12.3,47.9,1.5a5.18,5.18,0,0,1-1.9,2.7c-9.8,9.8-19.5,19.6-29.3,29.3a5.18,5.18,0,0,1-2.7,1.9c-.2,0-.5-.1-.7-.1C301.9,65.7,292.9,58.5,284.2,51Z" fill="#a34e3f"/><path d="M310.4,74.3c9.1-9.2,18.1-18.4,27.2-27.5,2.2-2.2,4.1-4.7,6.8-6.3C356.7,52,358,72,347.1,85.4c-4.2,5.2-9.2,9.8-14.1,14.4C325.8,90.8,318.1,82.5,310.4,74.3Z" fill="#86363e"/></g></g></svg>