<?xml version="1.0" encoding="utf-8"?>
<!-- Generator: Adobe Illustrator 26.0.0, SVG Export Plug-In . SVG Version: 6.00 Build 0)  -->
<svg version="1.1" id="Layer_1" xmlns="http://www.w3.org/2000/svg" xmlns:xlink="http://www.w3.org/1999/xlink" x="0px" y="0px"
	 viewBox="0 0 383.9 383.9" style="enable-background:new 0 0 383.9 383.9;" xml:space="preserve">
<style type="text/css">
	.st0{fill:#A34E3F;}
	.st1{fill:#86363E;}
	.st2{fill:#4166AF;}
	.st3{fill:#387AE5;}
	.st4{fill:#EEF1F5;}
	.st5{fill:#E6E9F0;}
	.st6{fill:#E8EAF1;}
	.st7{fill:#D6DAE6;}
</style>
<path class="st0" d="M0,340.4c2.1-7.5,7.3-12.6,12.6-17.9c73.5-73.2,146.9-146.6,220.2-220.1c0.9-0.9,1.7-1.8,2.6-2.7
	c2.7-0.9,4.2,1.4,5.6,2.8c6.8,6.4,14,12.4,20.3,19.4c0.5,0.5,0.7,1.3,0.5,2c-23.7,23.5-47.2,47.2-70.8,70.8
	C132.5,253,74,311.5,15.5,370c-1.5,1.5-2.7,3.7-5.3,3.8c-3.7-2.4-4.9-6.4-6.9-10s-2.4-7.5-3.2-11.4V340.4z"/>
<path class="st1" d="M10.4,373.4c1.2-1.1,2.5-2.1,3.6-3.2C95.2,289,176.4,207.8,257.6,126.7c1.2-1.2,2.1-2.9,4.1-3
	c3.1,0.1,4.4,2.7,6,4.5c5.1,5.7,10.8,11,15.6,17c0.8,1,1.8,1.8,1.1,3.3L165.1,267.6C131.6,301.2,98,334.8,64.5,368.3
	c-7.1,7.2-14.5,13.6-24.8,15.5H29.2c-5.9-0.3-11.6-2.6-16.1-6.4C11.9,376.4,10.2,375.5,10.4,373.4z"/>
<path class="st2" d="M284.3,148.5c-0.5-2.4-2.5-3.6-4-5.2c-6-6.7-12.1-13.4-18.7-19.6c-0.3-0.5-0.6-1-0.8-1.4
	c15.7-15.9,31.5-31.7,47.4-47.4c0.4-0.4,0.8-0.6,1.2-0.8c0.4-0.1,0.7-0.1,1.1,0c5.8,4.4,10.2,10.2,15,15.6c2.9,3.3,5.8,6.5,8.4,10
	c18.4,23.2,32.5,48.7,41.4,77c4.7,14.8,8.2,29.8,8.1,45.4c0.2,1.7-0.4,3.5,0.4,5.2v18c-0.6,1.7-0.6,3.6,0,5.2v2.2
	c-1.4,4.6-1.2,9.5-2.2,14.2c-1.3,5.8-1.6,11.9-4.5,17.2c-2.3,4.3-7.4,6.8-11.5,5.9c-5.4-1.2-9.1-4.9-9.4-9.8
	c-0.7-7.4-2.1-14.8-4.2-21.9c-4.8-16.5-12.1-31.8-20.6-46.7c-10.7-18.3-22.9-35.6-36.4-51.8C291.6,155.8,288.9,151.3,284.3,148.5z"
	/>
<path class="st3" d="M309.6,74.2c-1.3,1.5-2.6,3-4,4.4c-13.6,13.7-27.3,27.3-41,41c-1.1,1.1-2,2.7-3.9,2.7
	c-7.4-6.9-14.7-13.8-22.1-20.6c-0.9-0.9-1.7-2.2-3.4-2c-0.3-2.5-2.6-3.2-4.1-4.5c-17.9-16-37.4-30.1-58.1-42.2
	c-18.7-10.9-38.2-19.9-59.6-24.2c-2.8-0.6-5.6-1-8.5-1.1c-5.9-0.2-10.1-4.2-10.9-10.2c-0.7-5.2,2.3-9.8,7.8-11.6
	c9.5-3,19.3-4.7,29.2-5.2c1.2-0.7,2.4-0.2,3.7-0.3c2-0.2,4.1,0.4,6.1-0.4h13.5c2.1,0.8,4.3,0.2,6.5,0.4c14-0.2,27.6,2.8,40.9,6.6
	c29.7,8.4,56.4,22.7,80.8,41.6c0.6,0.5,1.1,1,1.7,1.5c8,6.4,15.7,13.1,23,20.2C308.4,71.3,310,72.2,309.6,74.2z"/>
<path class="st4" d="M161.2,0c0,0.2,0,0.5,0,0.7c-2.2-0.3-4.6,0.8-6.8-0.7H161.2z"/>
<path class="st5" d="M134.7,0.2c0.1-0.2,0.2-0.2,0.2-0.2h6"/>
<path class="st6" d="M383.1,221.9c0.2,0,0.5,0,0.7,0v5.2C382.5,225.6,383.4,223.6,383.1,221.9z"/>
<path class="st7" d="M383.9,250.4c-1.2-1.5-1.2-3.7,0-5.2V250.4z"/>
<path class="st0" d="M284.2,51c4.1-4,8-8.2,12.2-12.1c14-13,34.5-12.3,47.9,1.5c-0.3,1.1-1,2-1.9,2.7c-9.8,9.8-19.5,19.6-29.3,29.3
	c-0.7,0.9-1.6,1.6-2.7,1.9c-0.2,0-0.5-0.1-0.7-0.1C301.9,65.7,292.9,58.5,284.2,51z"/>
<path class="st1" d="M310.4,74.3c9.1-9.2,18.1-18.4,27.2-27.5c2.2-2.2,4.1-4.7,6.8-6.3c12.3,11.5,13.6,31.5,2.7,44.9
	c-4.2,5.2-9.2,9.8-14.1,14.4C325.8,90.8,318.1,82.5,310.4,74.3z"/>
</svg>
