<svg xmlns="http://www.w3.org/2000/svg" viewBox="0 0 469.13 475.09"><g id="Layer_2" data-name="Layer 2"><g id="Layer_1-2" data-name="Layer 1"><g id="Layer_2-2" data-name="Layer 2"><g id="Layer_1-2-2" data-name="Layer 1-2"><path d="M103.16,23.75A121.35,121.35,0,0,0,80.58,26c96.21,57.91,168.05,135.32,224.75,224.86,2.27-48.39-17.17-98.22-48.18-138.83-12.69,4.77-28.33.67-39.12-10.12s-14.91-26.42-10.15-39.1C175.72,38.51,139,23.57,103.16,23.75Z" fill="#619ef7"/><path d="M445.67,235c-12.52-4-25-8.22-37.4-12.6l.61,2.55-49.58,7.9-17.47,72.57L408,340.66l-.51.7c12.77-2.81,25.49-5.87,38.2-9Z" fill="#2a2d35"/><path d="M445.67,451.34v-119c-12.71,3.13-25.43,6.19-38.2,9L370.86,391l26.38,39.17c10,7.28,20.15,14.4,30.41,21.16Z" fill="#3a3437"/><path d="M70.26,357.6,40.33,451.34h148.5c-6.88-22.91-13.78-45.76-18.6-69.12Z" fill="#53596a"/><path d="M275.29,259.75,175.05,312.06l-3.8,70.43-1.09-.27c4.82,23.36,11.7,46.21,18.6,69.12h28.31c14.66-38.39,27.17-78.93,47.63-114.93l-1.26-.55Z" fill="#2a2d35"/><path d="M397.24,430.18l.31.46-79.9-24.86,14.85-39.46-67.76-29.91c-20.46,36-33,76.5-47.63,114.93H427.65Q412.26,441.14,397.24,430.18Z" fill="#1d1c1a"/><path d="M445.67,42.12,381.83,112l26.44,110.46c12.44,4.38,24.88,8.62,37.4,12.6Z" fill="#444343"/><path d="M225.15,66.54a7.31,7.31,0,0,0-1.05,0c-3.27.3-14.85-5.9-16.93-3.83-6.54,12.94,1.5,30.44,10.16,39.1s14,16.39,39.12,10.09c5.53-5.53-14.15-36.27-14.15-36.27" fill="#695151"/><path d="M177.55,122.64,23.46,276.8c3.84,10.73,9.9,18.9,22.72,23.06L200.5,146.41l22.26-4.12c-7-8-31-32-39.27-39.28Z" fill="#695151"/><polygon points="320.46 133.1 328.83 209.32 353.53 133.1 320.46 133.1 320.46 133.1" fill="#3a3437"/><polygon points="201.63 200.58 183.49 232.92 266.91 239.56 201.63 200.58 201.63 200.58" fill="#53596a"/></g></g><polygon points="10 0 0 0 0 8 10 0" fill="#fff"/><polygon points="469.13 475.09 461 475.09 469.13 466 469.13 475.09" fill="#fff"/></g></g></svg>